<svg width="40" height="40" viewBox="0 0 40 40" fill="none" xmlns="http://www.w3.org/2000/svg">
<rect x="0.5" y="0.5" width="39" height="39" rx="19.5" fill="#573353" fill-opacity="0.1" stroke="white"/>
<path d="M24.4285 21.277L18.0498 26.0414C17.8689 26.1756 17.6627 26.2475 17.4523 26.2499C17.2419 26.2523 17.0347 26.1851 16.8519 26.055C16.669 25.925 16.517 25.7367 16.4113 25.5095C16.3056 25.2822 16.2499 25.024 16.25 24.7612V15.2388C16.2499 14.9759 16.3056 14.7178 16.4113 14.4905C16.517 14.2633 16.669 14.075 16.8519 13.945C17.0347 13.8149 17.2419 13.7477 17.4523 13.7501C17.6627 13.7525 17.8689 13.8244 18.0498 13.9586L24.4285 18.7388C24.603 18.8712 24.7472 19.0575 24.8473 19.2798C24.9474 19.5021 25 19.7528 25 20.0079C25 20.2629 24.9474 20.5136 24.8473 20.7359C24.7472 20.9582 24.603 21.1446 24.4285 21.277Z" fill="white"/>
</svg>
